<svg xmlns="http://www.w3.org/2000/svg" viewBox="0 0 120 120" width="100%" height="100%">
  <path d="M 50 95 L 70 95 L 75 105 L 45 105 Z" fill="#334155"/>
  <path d="M 55 85 L 65 85 L 68 95 L 52 95 Z" fill="#475569"/>

  <rect x="15" y="25" width="90" height="60" rx="6" fill="#1e293b" stroke="#334155" stroke-width="3"/>

  <rect x="20" y="30" width="80" height="50" rx="3" fill="#0f172a"/>

  <path d="M 28 35 h 35 a 3 3 0 0 1 3 3 v 9 a 3 3 0 0 1 -3 3 h -30 l -4 4 v -4 a 3 3 0 0 1 -3 -3 v -9 a 3 3 0 0 1 3 -3 z" fill="#14532d" stroke="#4ade80" stroke-width="1.5" stroke-linejoin="round"/>
  <line x1="31" y1="40" x2="60" y2="40" stroke="#4ade80" stroke-width="1.5" stroke-linecap="round"/>
  <line x1="31" y1="45" x2="50" y2="45" stroke="#4ade80" stroke-width="1.5" stroke-linecap="round"/>

  <path d="M 55 50 h 35 a 3 3 0 0 1 3 3 v 9 a 3 3 0 0 1 -3 3 h -3 v 4 l -4 -4 h -28 a 3 3 0 0 1 -3 -3 v -9 a 3 3 0 0 1 3 -3 z" fill="#0c4a6e" stroke="#38bdf8" stroke-width="1.5" stroke-linejoin="round"/>
  <line x1="58" y1="55" x2="87" y2="55" stroke="#38bdf8" stroke-width="1.5" stroke-linecap="round"/>
  <line x1="58" y1="60" x2="75" y2="60" stroke="#38bdf8" stroke-width="1.5" stroke-linecap="round"/>

  <path d="M 28 65 h 35 a 3 3 0 0 1 3 3 v 9 a 3 3 0 0 1 -3 3 h -30 l -4 4 v -4 a 3 3 0 0 1 -3 -3 v -9 a 3 3 0 0 1 3 -3 z" fill="#14532d" stroke="#4ade80" stroke-width="1.5" stroke-linejoin="round"/>
  <line x1="31" y1="70" x2="55" y2="70" stroke="#4ade80" stroke-width="1.5" stroke-linecap="round"/>
  <line x1="31" y1="75" x2="45" y2="75" stroke="#4ade80" stroke-width="1.5" stroke-linecap="round"/>

  <circle cx="70" cy="65" r="16" fill="#0f172a" fill-opacity="0.85" stroke="#4ade80" stroke-width="3"/>
  <circle cx="70" cy="65" r="14" fill="none" stroke="#22c55e" stroke-width="1" opacity="0.6"/>

  <line x1="62" y1="61" x2="78" y2="61" stroke="#4ade80" stroke-width="2.5" stroke-linecap="round"/>
  <line x1="62" y1="69" x2="72" y2="69" stroke="#4ade80" stroke-width="2.5" stroke-linecap="round"/>

  <line x1="81" y1="76" x2="95" y2="90" stroke="#334155" stroke-width="6" stroke-linecap="round"/>
  <line x1="81" y1="76" x2="93" y2="88" stroke="#475569" stroke-width="2" stroke-linecap="round"/>
</svg>
